<svg xmlns="http://www.w3.org/2000/svg" version="1.1" xmlns:xlink="http://www.w3.org/1999/xlink" xmlns:svgjs="http://svgjs.dev/svgjs" width="2000" height="1500" viewBox="0 0 2000 1500"><rect width="2000" height="1500" fill="#ffffff"></rect><g transform="matrix(0.4444444444444444,0,0,0.4444444444444444,555.5555555555557,250)"><svg viewBox="0 0 320 360" data-background-color="#ffffff" preserveAspectRatio="xMidYMid meet" height="2250" width="2000" xmlns="http://www.w3.org/2000/svg" xmlns:xlink="http://www.w3.org/1999/xlink"><defs></defs><g id="tight-bounds" transform="matrix(1,0,0,1,0,0)"><svg viewBox="0 0 320 360" height="360" width="320"><g><svg></svg></g><g><svg viewBox="0 0 320 360" height="360" width="320"><g><path d="M320 141.95l-19.957-19.957v-28.224l-53.812-53.812h-28.223l-19.958-19.957h-76.1l-19.957 19.957h-28.224l-53.812 53.812v28.224l-19.957 19.957v76.104l19.957 19.958v28.223l53.816 53.808h28.224l19.957 19.957h76.104l19.958-19.957h28.223l53.812-53.812v-28.224l19.949-19.957zM244.374 44.437l51.189 51.189v21.887l-73.076-73.076zM295.563 123.849v112.306l-79.408 79.408h-112.306l-79.412-79.412v-112.302l79.412-79.412h112.306zM123.807 24.48h72.39l15.478 15.477h-103.346zM24.437 95.626l51.189-51.189h21.887l-73.076 73.076zM4.484 216.197v-72.394l15.477-15.478v103.342zM75.626 315.563l-51.189-51.189v-21.887l73.076 73.076zM196.197 335.52h-72.39l-15.478-15.477h103.342zM295.563 264.374l-51.189 51.189h-21.887l73.076-73.076zM315.52 216.197l-15.477 15.478v-103.346l15.477 15.478z" fill="#61777f" data-fill-palette-color="tertiary"></path></g><g transform="matrix(1,0,0,1,56,154.34833412938806)"><svg viewBox="0 0 208 51.30333174122385" height="51.30333174122385" width="208"><g><svg viewBox="0 0 209.03999999999996 51.55984839992996" height="51.30333174122385" width="208"><g><rect width="209.03999999999996" height="1.579210058079202" x="0" y="28.335026083273952" fill="#c8c8c8" opacity="1" stroke-width="0" stroke="transparent" fill-opacity="1" class="rect-o-0" data-fill-palette-color="secondary" rx="1%" id="o-0" data-palette-color="#c8c8c8"></rect></g><g transform="matrix(1,0,0,1,0.5199999999999818,34.04829388501599)"><svg viewBox="0 0 208 17.51155451491398" height="17.51155451491398" width="208"><g><svg viewBox="0 0 208 17.51155451491398" height="17.51155451491398" width="208"><g><svg viewBox="0 0 208 17.51155451491398" height="17.51155451491398" width="208"><g transform="matrix(1,0,0,1,0,0)"><svg width="208" viewBox="1.2999999523162842 -40.29999923706055 491.1200256347656 41.349998474121094" height="17.51155451491398" data-palette-color="#61777f"><path d="M56.6-3.6L54.75 0.05 36.3 0.05 36.3-3.15 41-6.85 41-29.6 28.9 0.05 24.1 0.05 11.65-30.05 11.65-5.75 17.35-3.6 15.5 0.05 2.2 0.05 2.2-3.15 6.9-6.85 6.9-33.45 1.3-35.7 3.1-39.3 18.15-39.3 29.25-12.6 40.1-39.3 55.7-39.3 55.7-36.15 50.95-32.45 50.95-5.05 56.6-3.6ZM102.05-36.15L97.3-32.45 97.3-15.5Q97.3-10.25 94.67-6.5 92.05-2.75 88.12-0.88 84.2 1 80.5 1L80.5 1Q75.6 1 71.7-0.98 67.8-2.95 65.62-6.43 63.45-9.9 63.45-14.25L63.45-14.25 63.45-34.3 57.8-35.7 59.65-39.3 78.1-39.3 78.1-36.15 73.35-32.45 73.35-15.85Q73.35-10.8 75.95-8.03 78.55-5.25 83.9-5.25L83.9-5.25Q85.9-5.25 87.92-6.45 89.95-7.65 91.25-9.95 92.55-12.25 92.55-15.35L92.55-15.35 92.55-33.5 86.5-35.7 88.35-39.3 102.05-39.3 102.05-36.15ZM125.4-8.05Q125.4-9.55 124.22-10.9 123.05-12.25 121.34-13.38 119.65-14.5 116.59-16.25L116.59-16.25Q112.84-18.4 110.59-19.93 108.34-21.45 106.75-23.53 105.15-25.6 105.15-28.1L105.15-28.1Q105.15-30.6 107.5-33.48 109.84-36.35 113.27-38.33 116.7-40.3 119.55-40.3L119.55-40.3Q123-40.3 127.62-39.55 132.25-38.8 134.4-37.95L134.4-37.95 134.4-26.65 128.8-26.65Q126.9-30.7 124.45-32.95 122-35.2 119.34-35.2L119.34-35.2Q117.59-35.2 116.59-34.08 115.59-32.95 115.59-31.2L115.59-31.2Q115.59-29.6 116.8-28.18 118-26.75 119.77-25.58 121.55-24.4 124.65-22.7L124.65-22.7Q128.3-20.65 130.52-19.15 132.75-17.65 134.32-15.63 135.9-13.6 135.9-11.15L135.9-11.15Q135.9-8.65 133.37-5.78 130.84-2.9 127.25-0.93 123.65 1.05 120.65 1.05L120.65 1.05Q117 1.05 112.05 0.3 107.09-0.45 104.9-1.3L104.9-1.3 104.9-12.65 110.45-12.65Q112.5-8.6 115.27-6.35 118.05-4.1 120.9-4.1L120.9-4.1Q122.95-4.1 124.17-5.25 125.4-6.4 125.4-8.05L125.4-8.05ZM160.19-3.65L158.39 0 139.94 0 139.94-3.2 144.64-7.25 144.64-34.15 139.04-35.7 140.84-39.3 159.29-39.3 159.29-36.15 154.54-32.05 154.54-5.2 160.19-3.65ZM187.29-40.3Q190.29-40.3 194.29-39.55 198.29-38.8 200.14-37.95L200.14-37.95 200.14-27.05 194.59-27.05Q190.84-34.05 184.39-34.05L184.39-34.05Q181.79-34.05 179.64-32.38 177.49-30.7 176.24-27.75 174.99-24.8 174.99-21.15L174.99-21.15Q174.99-17 176.24-13.58 177.49-10.15 180.06-8.13 182.64-6.1 186.44-6.1L186.44-6.1Q191.09-6.1 199.64-10.7L199.64-10.7 201.79-7.25 192.59-0.1Q190.29 0.55 188.19 0.78 186.09 1 183.64 1L183.64 1Q177.94 1 173.52-1.55 169.09-4.1 166.64-8.58 164.19-13.05 164.19-18.75L164.19-18.75Q164.19-24.6 167.84-29.58 171.49-34.55 176.94-37.43 182.39-40.3 187.29-40.3L187.29-40.3ZM244.14-40.2L244.14-26.1 240.99-24.75 233.89-35 229.69-35 229.69-5.05 235.34-3.65 233.54 0 215.09 0 215.09-3.2 219.79-6.9 219.79-35 215.69-35 208.59-24.75 205.49-26.1 205.49-40.2 209.34-39.3 240.24-39.3 244.14-40.2ZM271.99-40.3Q277.88-40.3 282.38-37.75 286.88-35.2 289.34-30.7 291.79-26.2 291.79-20.5L291.79-20.5Q291.79-14.65 288.06-9.7 284.34-4.75 278.84-1.88 273.34 1 268.44 1L268.44 1Q262.59 1 258.11-1.53 253.64-4.05 251.16-8.55 248.69-13.05 248.69-18.75L248.69-18.75Q248.69-24.6 252.39-29.58 256.09-34.55 261.59-37.43 267.09-40.3 271.99-40.3L271.99-40.3ZM269.09-34.05Q266.44-34.05 264.24-32.38 262.04-30.7 260.76-27.75 259.49-24.8 259.49-21.15L259.49-21.15Q259.49-16.75 260.79-13.15 262.09-9.55 264.76-7.4 267.44-5.25 271.34-5.25L271.34-5.25Q273.99-5.25 276.19-6.93 278.38-8.6 279.69-11.55 280.99-14.5 280.99-18.15L280.99-18.15Q280.99-22.55 279.69-26.18 278.38-29.8 275.69-31.93 272.99-34.05 269.09-34.05L269.09-34.05ZM317.13-19.6Q319.63-19.6 321.06-21.45 322.48-23.3 322.48-26.55L322.48-26.55Q322.48-30.3 320.68-32.65 318.88-35 315.38-35L315.38-35Q313.18-35 311.28-33.65L311.28-33.65 311.28-5.45 320.23-3.65 318.43 0 296.68 0 296.68-3.2 301.38-6.9 301.38-34 295.78-35.7 297.58-39.3 306.63-39.3Q310.98-39.3 315.18-39.6L315.18-39.6Q318.18-39.8 319.68-39.8L319.68-39.8Q323.68-39.8 326.78-38.27 329.88-36.75 331.58-34.08 333.28-31.4 333.28-28.1L333.28-28.1Q333.28-24.5 330.46-21.33 327.63-18.15 323.36-16.32 319.08-14.5 315.03-14.7L315.03-14.7 312.93-16 314.73-19.6 317.13-19.6ZM372.38 0.9L368.48 0 336.43 0 336.43-3.2 341.13-6.9 341.13-34.1 335.53-35.7 337.33-39.3 367.98-39.3 371.88-40.2 371.88-27.1 368.73-25.75 362.53-35 351.03-35 351.03-22.2 356.43-22.2 360.08-27.6 363.28-27.6 363.28-13.2 359.63-11.4 356.33-17.95 351.03-17.95 351.03-4.3 362.08-4.3 369.23-14.55 372.38-13.25 372.38 0.9ZM399.63-39.8Q405.38-39.8 409.83-37.33 414.28-34.85 416.7-30.45 419.13-26.05 419.13-20.5L419.13-20.5Q419.13-14.8 415.48-9.98 411.83-5.15 406.4-2.33 400.98 0.5 396.08 0.5L396.08 0.5Q393.88 0.5 391.63 0.25L391.63 0.25Q387.88 0 385.88 0L385.88 0 377.53 0 377.53-3.2 382.23-6.9 382.23-34 376.63-35.7 378.43-39.3 385.83-39.3Q390.43-39.3 394.83-39.6L394.83-39.6Q398.13-39.8 399.63-39.8L399.63-39.8ZM397.53-4.35Q400.53-4.35 403.03-6.15 405.53-7.95 406.95-11.08 408.38-14.2 408.38-18.1L408.38-18.1Q408.38-22.75 407-26.58 405.63-30.4 402.8-32.68 399.98-34.95 395.78-34.95L395.78-34.95Q393.83-34.95 392.13-33.95L392.13-33.95 392.13-5.25Q394.43-4.4 397.48-4.4L397.48-4.4 397.53-4.35ZM444.28-3.65L442.48 0 424.03 0 424.03-3.2 428.73-7.25 428.73-34.15 423.13-35.7 424.93-39.3 443.38-39.3 443.38-36.15 438.63-32.05 438.63-5.2 444.28-3.65ZM492.42-3.65L490.62 0 470.97 0 470.97-3.2 476.67-6.4 473.87-13.25 458.82-13.25 456.42-7.35 463.77-3.65 461.97 0 445.52 0 445.52-3.2 451.17-7.4 463.57-37.7 473.27-40.25 487.27-6.1 492.42-3.65ZM472.17-17.5L466.37-31.75 460.57-17.5 472.17-17.5Z" opacity="1" transform="matrix(1,0,0,1,0,0)" fill="#61777f" class="undefined-text-0" data-fill-palette-color="primary" id="text-0"></path></svg></g></svg></g></svg></g></svg></g><g transform="matrix(1,0,0,1,87.1005203266746,0)"><svg viewBox="0 0 34.83895934665076 24.20096833961112" height="24.20096833961112" width="34.83895934665076"><g><svg xmlns="http://www.w3.org/2000/svg" xmlns:xlink="http://www.w3.org/1999/xlink" version="1.1" x="8" y="0" viewBox="11.079002380371094 0 77.84381866455078 99.99999237060547" enable-background="new 0 0 100 100" xml:space="preserve" height="24.20096833961112" width="18.83895934665076" class="icon-icon-0" data-fill-palette-color="accent" id="icon-0"><g fill="#c8c8c8" data-fill-palette-color="accent"><g fill="#c8c8c8" data-fill-palette-color="accent"><path fill="#c8c8c8" d="M87.092 40.527c-2.281-6.219-6.643-11.717-12.774-15.342-0.095-0.057-0.185-0.112-0.278-0.165L53.706 13.281V5.396c0-1.489-0.604-2.837-1.58-3.816C51.15 0.604 49.799 0 48.31 0c-2.983 0-5.396 2.417-5.396 5.396v1.651V25.85v2.676 14.981 29.915c-0.987-0.375-2.023-0.698-3.104-0.961-0.454-0.116-0.911-0.218-1.381-0.308-1.91-0.376-3.937-0.578-6.03-0.578-11.773 0-21.32 6.361-21.32 14.212 0 7.848 9.547 14.213 21.32 14.213 11.772 0 21.316-6.365 21.316-14.213 0-0.06 0-0.124-0.004-0.184v-1.82h-0.004c0-0.004 0-0.011 0-0.015v-3.712-0.169V39.143 34.76l11.034 6.368c0.089 0.053 0.184 0.105 0.277 0.154l-0.012 0.026c0.301 0.15 0.597 0.314 0.894 0.483 7.569 4.372 11.292 12.854 9.971 20.998l0.188 0.03c-0.346 1.895 0.507 3.884 2.271 4.904 2.15 1.242 4.875 0.585 6.241-1.445 0.056-0.09 0.116-0.18 0.169-0.273 0.007-0.015 0.019-0.033 0.025-0.049 0.057-0.094 0.113-0.188 0.169-0.285C89.523 57.716 90.026 48.525 87.092 40.527z" data-fill-palette-color="accent"></path></g></g></svg></g></svg></g><g><rect width="46.85252032667462" height="1.579210058079202" y="21.621758281531918" x="121.93947967332537" fill="#c8c8c8" data-fill-palette-color="secondary"></rect><rect width="46.85252032667462" height="1.579210058079202" y="21.621758281531918" x="40.247999999999976" fill="#c8c8c8" data-fill-palette-color="secondary"></rect></g></svg></g></svg></g></svg></g></svg><rect width="320" height="360" fill="none" stroke="none" visibility="hidden"></rect></g></svg></g></svg>